<mxfile host="app.diagrams.net" agent="Mozilla/5.0 (Windows NT 10.0; Win64; x64) AppleWebKit/537.36 (KHTML, like Gecko) Chrome/141.0.0.0 Safari/537.36" version="28.2.7">
  <diagram name="Page-1" id="_HbgaxgVMnRwvdB1UXVf">
    <mxGraphModel dx="1342" dy="768" grid="1" gridSize="10" guides="1" tooltips="1" connect="1" arrows="1" fold="1" page="1" pageScale="1" pageWidth="827" pageHeight="1169" math="0" shadow="0">
      <root>
        <mxCell id="0" />
        <mxCell id="1" parent="0" />
        <mxCell id="kq0ffmicBGfv-IricyYw-6" style="edgeStyle=orthogonalEdgeStyle;rounded=0;orthogonalLoop=1;jettySize=auto;html=1;exitX=1;exitY=0.5;exitDx=0;exitDy=0;entryX=0;entryY=0.5;entryDx=0;entryDy=0;" parent="1" source="kq0ffmicBGfv-IricyYw-1" target="kq0ffmicBGfv-IricyYw-5" edge="1">
          <mxGeometry relative="1" as="geometry" />
        </mxCell>
        <mxCell id="kq0ffmicBGfv-IricyYw-8" value="1,N" style="edgeLabel;html=1;align=center;verticalAlign=middle;resizable=0;points=[];" parent="kq0ffmicBGfv-IricyYw-6" vertex="1" connectable="0">
          <mxGeometry x="-0.6706" y="2" relative="1" as="geometry">
            <mxPoint as="offset" />
          </mxGeometry>
        </mxCell>
        <mxCell id="kq0ffmicBGfv-IricyYw-11" style="edgeStyle=orthogonalEdgeStyle;rounded=0;orthogonalLoop=1;jettySize=auto;html=1;exitX=0.5;exitY=1;exitDx=0;exitDy=0;entryX=0.5;entryY=0;entryDx=0;entryDy=0;" parent="1" source="kq0ffmicBGfv-IricyYw-1" target="kq0ffmicBGfv-IricyYw-10" edge="1">
          <mxGeometry relative="1" as="geometry" />
        </mxCell>
        <mxCell id="kq0ffmicBGfv-IricyYw-13" value="1,N" style="edgeLabel;html=1;align=center;verticalAlign=middle;resizable=0;points=[];" parent="kq0ffmicBGfv-IricyYw-11" vertex="1" connectable="0">
          <mxGeometry x="-0.2807" relative="1" as="geometry">
            <mxPoint as="offset" />
          </mxGeometry>
        </mxCell>
        <mxCell id="kq0ffmicBGfv-IricyYw-1" value="users" style="rounded=0;whiteSpace=wrap;html=1;" parent="1" vertex="1">
          <mxGeometry x="200" y="120" width="120" height="60" as="geometry" />
        </mxCell>
        <mxCell id="kq0ffmicBGfv-IricyYw-2" value="direct_letters" style="rounded=0;whiteSpace=wrap;html=1;" parent="1" vertex="1">
          <mxGeometry x="200" y="320" width="120" height="60" as="geometry" />
        </mxCell>
        <mxCell id="kq0ffmicBGfv-IricyYw-3" value="posts" style="rounded=0;whiteSpace=wrap;html=1;" parent="1" vertex="1">
          <mxGeometry x="510" y="120" width="120" height="60" as="geometry" />
        </mxCell>
        <mxCell id="kq0ffmicBGfv-IricyYw-4" value="Diagrama - Registro de usuÃ¡rio" style="text;html=1;whiteSpace=wrap;strokeColor=none;fillColor=none;align=center;verticalAlign=middle;rounded=0;" parent="1" vertex="1">
          <mxGeometry x="329" y="20" width="170" height="30" as="geometry" />
        </mxCell>
        <mxCell id="kq0ffmicBGfv-IricyYw-7" style="edgeStyle=orthogonalEdgeStyle;rounded=0;orthogonalLoop=1;jettySize=auto;html=1;exitX=1;exitY=0.5;exitDx=0;exitDy=0;entryX=0;entryY=0.5;entryDx=0;entryDy=0;" parent="1" source="kq0ffmicBGfv-IricyYw-5" target="kq0ffmicBGfv-IricyYw-3" edge="1">
          <mxGeometry relative="1" as="geometry" />
        </mxCell>
        <mxCell id="kq0ffmicBGfv-IricyYw-9" value="1,N" style="edgeLabel;html=1;align=center;verticalAlign=middle;resizable=0;points=[];" parent="kq0ffmicBGfv-IricyYw-7" vertex="1" connectable="0">
          <mxGeometry x="0.4437" y="2" relative="1" as="geometry">
            <mxPoint as="offset" />
          </mxGeometry>
        </mxCell>
        <mxCell id="kq0ffmicBGfv-IricyYw-5" value="Faz" style="rhombus;whiteSpace=wrap;html=1;" parent="1" vertex="1">
          <mxGeometry x="374" y="110" width="80" height="80" as="geometry" />
        </mxCell>
        <mxCell id="kq0ffmicBGfv-IricyYw-12" style="edgeStyle=orthogonalEdgeStyle;rounded=0;orthogonalLoop=1;jettySize=auto;html=1;exitX=0.5;exitY=1;exitDx=0;exitDy=0;entryX=0.5;entryY=0;entryDx=0;entryDy=0;" parent="1" source="kq0ffmicBGfv-IricyYw-10" target="kq0ffmicBGfv-IricyYw-2" edge="1">
          <mxGeometry relative="1" as="geometry" />
        </mxCell>
        <mxCell id="t9FMdMXyEdO8zE43Ng7H-38" value="1,N" style="edgeLabel;html=1;align=center;verticalAlign=middle;resizable=0;points=[];" vertex="1" connectable="0" parent="kq0ffmicBGfv-IricyYw-12">
          <mxGeometry x="0.0351" relative="1" as="geometry">
            <mxPoint as="offset" />
          </mxGeometry>
        </mxCell>
        <mxCell id="kq0ffmicBGfv-IricyYw-10" value="Envia" style="rhombus;whiteSpace=wrap;html=1;" parent="1" vertex="1">
          <mxGeometry x="220" y="210" width="80" height="80" as="geometry" />
        </mxCell>
        <mxCell id="t9FMdMXyEdO8zE43Ng7H-7" style="rounded=0;orthogonalLoop=1;jettySize=auto;html=1;exitX=1;exitY=1;exitDx=0;exitDy=0;entryX=0;entryY=0.5;entryDx=0;entryDy=0;" edge="1" parent="1" source="t9FMdMXyEdO8zE43Ng7H-1" target="kq0ffmicBGfv-IricyYw-1">
          <mxGeometry relative="1" as="geometry" />
        </mxCell>
        <mxCell id="t9FMdMXyEdO8zE43Ng7H-1" value="user_id(PK)" style="ellipse;whiteSpace=wrap;html=1;fillColor=light-dark(#6666FF,#EDEDED);strokeColor=light-dark(#333333,#EDEDED);" vertex="1" parent="1">
          <mxGeometry x="40" y="50" width="80" height="50" as="geometry" />
        </mxCell>
        <mxCell id="t9FMdMXyEdO8zE43Ng7H-2" value="username" style="ellipse;whiteSpace=wrap;html=1;" vertex="1" parent="1">
          <mxGeometry x="40" y="110" width="80" height="50" as="geometry" />
        </mxCell>
        <mxCell id="t9FMdMXyEdO8zE43Ng7H-11" style="rounded=0;orthogonalLoop=1;jettySize=auto;html=1;entryX=0;entryY=0.75;entryDx=0;entryDy=0;" edge="1" parent="1" source="t9FMdMXyEdO8zE43Ng7H-3" target="kq0ffmicBGfv-IricyYw-1">
          <mxGeometry relative="1" as="geometry" />
        </mxCell>
        <mxCell id="t9FMdMXyEdO8zE43Ng7H-3" value="email" style="ellipse;whiteSpace=wrap;html=1;" vertex="1" parent="1">
          <mxGeometry x="40" y="170" width="80" height="50" as="geometry" />
        </mxCell>
        <mxCell id="t9FMdMXyEdO8zE43Ng7H-4" value="password_hash" style="ellipse;whiteSpace=wrap;html=1;" vertex="1" parent="1">
          <mxGeometry x="40" y="230" width="110" height="50" as="geometry" />
        </mxCell>
        <mxCell id="t9FMdMXyEdO8zE43Ng7H-5" value="join_date" style="ellipse;whiteSpace=wrap;html=1;" vertex="1" parent="1">
          <mxGeometry x="130" y="50" width="80" height="50" as="geometry" />
        </mxCell>
        <mxCell id="t9FMdMXyEdO8zE43Ng7H-9" style="edgeStyle=orthogonalEdgeStyle;rounded=0;orthogonalLoop=1;jettySize=auto;html=1;exitX=0.5;exitY=1;exitDx=0;exitDy=0;entryX=0.5;entryY=0;entryDx=0;entryDy=0;" edge="1" parent="1" source="t9FMdMXyEdO8zE43Ng7H-6" target="kq0ffmicBGfv-IricyYw-1">
          <mxGeometry relative="1" as="geometry" />
        </mxCell>
        <mxCell id="t9FMdMXyEdO8zE43Ng7H-6" value="is_banned" style="ellipse;whiteSpace=wrap;html=1;" vertex="1" parent="1">
          <mxGeometry x="220" y="50" width="80" height="50" as="geometry" />
        </mxCell>
        <mxCell id="t9FMdMXyEdO8zE43Ng7H-8" style="rounded=0;orthogonalLoop=1;jettySize=auto;html=1;exitX=1;exitY=1;exitDx=0;exitDy=0;entryX=0.083;entryY=0;entryDx=0;entryDy=0;entryPerimeter=0;" edge="1" parent="1" source="t9FMdMXyEdO8zE43Ng7H-5" target="kq0ffmicBGfv-IricyYw-1">
          <mxGeometry relative="1" as="geometry" />
        </mxCell>
        <mxCell id="t9FMdMXyEdO8zE43Ng7H-10" style="rounded=0;orthogonalLoop=1;jettySize=auto;html=1;exitX=1;exitY=0.5;exitDx=0;exitDy=0;entryX=0.004;entryY=0.655;entryDx=0;entryDy=0;entryPerimeter=0;" edge="1" parent="1" source="t9FMdMXyEdO8zE43Ng7H-2" target="kq0ffmicBGfv-IricyYw-1">
          <mxGeometry relative="1" as="geometry" />
        </mxCell>
        <mxCell id="t9FMdMXyEdO8zE43Ng7H-12" style="rounded=0;orthogonalLoop=1;jettySize=auto;html=1;entryX=0.187;entryY=0.988;entryDx=0;entryDy=0;entryPerimeter=0;" edge="1" parent="1" source="t9FMdMXyEdO8zE43Ng7H-4" target="kq0ffmicBGfv-IricyYw-1">
          <mxGeometry relative="1" as="geometry" />
        </mxCell>
        <mxCell id="t9FMdMXyEdO8zE43Ng7H-26" style="edgeStyle=orthogonalEdgeStyle;rounded=0;orthogonalLoop=1;jettySize=auto;html=1;exitX=0.5;exitY=1;exitDx=0;exitDy=0;entryX=0.5;entryY=0;entryDx=0;entryDy=0;" edge="1" parent="1" source="t9FMdMXyEdO8zE43Ng7H-15" target="kq0ffmicBGfv-IricyYw-3">
          <mxGeometry relative="1" as="geometry" />
        </mxCell>
        <mxCell id="t9FMdMXyEdO8zE43Ng7H-15" value="post_id(PK)" style="ellipse;whiteSpace=wrap;html=1;fillColor=#6666FF;" vertex="1" parent="1">
          <mxGeometry x="530" y="50" width="80" height="50" as="geometry" />
        </mxCell>
        <mxCell id="t9FMdMXyEdO8zE43Ng7H-27" style="rounded=0;orthogonalLoop=1;jettySize=auto;html=1;exitX=0;exitY=1;exitDx=0;exitDy=0;entryX=1;entryY=0;entryDx=0;entryDy=0;" edge="1" parent="1" source="t9FMdMXyEdO8zE43Ng7H-16" target="kq0ffmicBGfv-IricyYw-3">
          <mxGeometry relative="1" as="geometry" />
        </mxCell>
        <mxCell id="t9FMdMXyEdO8zE43Ng7H-16" value="title" style="ellipse;whiteSpace=wrap;html=1;" vertex="1" parent="1">
          <mxGeometry x="640" y="50" width="80" height="50" as="geometry" />
        </mxCell>
        <mxCell id="t9FMdMXyEdO8zE43Ng7H-28" style="edgeStyle=orthogonalEdgeStyle;rounded=0;orthogonalLoop=1;jettySize=auto;html=1;exitX=0;exitY=0.5;exitDx=0;exitDy=0;entryX=1;entryY=0.5;entryDx=0;entryDy=0;" edge="1" parent="1" source="t9FMdMXyEdO8zE43Ng7H-17" target="kq0ffmicBGfv-IricyYw-3">
          <mxGeometry relative="1" as="geometry" />
        </mxCell>
        <mxCell id="t9FMdMXyEdO8zE43Ng7H-17" value="content" style="ellipse;whiteSpace=wrap;html=1;" vertex="1" parent="1">
          <mxGeometry x="640" y="125" width="80" height="50" as="geometry" />
        </mxCell>
        <mxCell id="t9FMdMXyEdO8zE43Ng7H-29" style="rounded=0;orthogonalLoop=1;jettySize=auto;html=1;exitX=0;exitY=0;exitDx=0;exitDy=0;entryX=1;entryY=1;entryDx=0;entryDy=0;" edge="1" parent="1" source="t9FMdMXyEdO8zE43Ng7H-18" target="kq0ffmicBGfv-IricyYw-3">
          <mxGeometry relative="1" as="geometry" />
        </mxCell>
        <mxCell id="t9FMdMXyEdO8zE43Ng7H-18" value="creation_date" style="ellipse;whiteSpace=wrap;html=1;" vertex="1" parent="1">
          <mxGeometry x="640" y="200" width="80" height="50" as="geometry" />
        </mxCell>
        <mxCell id="t9FMdMXyEdO8zE43Ng7H-30" style="edgeStyle=orthogonalEdgeStyle;rounded=0;orthogonalLoop=1;jettySize=auto;html=1;exitX=0.5;exitY=0;exitDx=0;exitDy=0;entryX=0.5;entryY=1;entryDx=0;entryDy=0;" edge="1" parent="1" source="t9FMdMXyEdO8zE43Ng7H-19" target="kq0ffmicBGfv-IricyYw-3">
          <mxGeometry relative="1" as="geometry" />
        </mxCell>
        <mxCell id="t9FMdMXyEdO8zE43Ng7H-19" value="user_id(FK)" style="ellipse;whiteSpace=wrap;html=1;fillColor=#66B2FF;" vertex="1" parent="1">
          <mxGeometry x="530" y="200" width="80" height="50" as="geometry" />
        </mxCell>
        <mxCell id="t9FMdMXyEdO8zE43Ng7H-36" style="rounded=0;orthogonalLoop=1;jettySize=auto;html=1;exitX=1;exitY=0;exitDx=0;exitDy=0;entryX=0;entryY=0.75;entryDx=0;entryDy=0;" edge="1" parent="1" source="t9FMdMXyEdO8zE43Ng7H-20" target="kq0ffmicBGfv-IricyYw-2">
          <mxGeometry relative="1" as="geometry" />
        </mxCell>
        <mxCell id="t9FMdMXyEdO8zE43Ng7H-20" value="sender_id(FK)" style="ellipse;whiteSpace=wrap;html=1;fillColor=#66B2FF;" vertex="1" parent="1">
          <mxGeometry x="80" y="390" width="90" height="50" as="geometry" />
        </mxCell>
        <mxCell id="t9FMdMXyEdO8zE43Ng7H-21" value="is_read" style="ellipse;whiteSpace=wrap;html=1;" vertex="1" parent="1">
          <mxGeometry x="180" y="400" width="80" height="50" as="geometry" />
        </mxCell>
        <mxCell id="t9FMdMXyEdO8zE43Ng7H-22" value="send_date" style="ellipse;whiteSpace=wrap;html=1;" vertex="1" parent="1">
          <mxGeometry x="270" y="400" width="80" height="50" as="geometry" />
        </mxCell>
        <mxCell id="t9FMdMXyEdO8zE43Ng7H-23" value="content" style="ellipse;whiteSpace=wrap;html=1;" vertex="1" parent="1">
          <mxGeometry x="360" y="390" width="80" height="50" as="geometry" />
        </mxCell>
        <mxCell id="t9FMdMXyEdO8zE43Ng7H-31" style="edgeStyle=orthogonalEdgeStyle;rounded=0;orthogonalLoop=1;jettySize=auto;html=1;exitX=0;exitY=0.5;exitDx=0;exitDy=0;entryX=1;entryY=0.5;entryDx=0;entryDy=0;" edge="1" parent="1" source="t9FMdMXyEdO8zE43Ng7H-24" target="kq0ffmicBGfv-IricyYw-2">
          <mxGeometry relative="1" as="geometry" />
        </mxCell>
        <mxCell id="t9FMdMXyEdO8zE43Ng7H-24" value="letter_id(PK)" style="ellipse;whiteSpace=wrap;html=1;fillColor=#3333FF;" vertex="1" parent="1">
          <mxGeometry x="360" y="325" width="80" height="50" as="geometry" />
        </mxCell>
        <mxCell id="t9FMdMXyEdO8zE43Ng7H-25" value="receiver_id(FK)" style="ellipse;whiteSpace=wrap;html=1;fillColor=#66B2FF;" vertex="1" parent="1">
          <mxGeometry x="80" y="325" width="90" height="50" as="geometry" />
        </mxCell>
        <mxCell id="t9FMdMXyEdO8zE43Ng7H-32" style="rounded=0;orthogonalLoop=1;jettySize=auto;html=1;exitX=0;exitY=0;exitDx=0;exitDy=0;entryX=1;entryY=0.867;entryDx=0;entryDy=0;entryPerimeter=0;" edge="1" parent="1" source="t9FMdMXyEdO8zE43Ng7H-23" target="kq0ffmicBGfv-IricyYw-2">
          <mxGeometry relative="1" as="geometry" />
        </mxCell>
        <mxCell id="t9FMdMXyEdO8zE43Ng7H-33" style="edgeStyle=orthogonalEdgeStyle;rounded=0;orthogonalLoop=1;jettySize=auto;html=1;exitX=0.5;exitY=0;exitDx=0;exitDy=0;entryX=0.925;entryY=1.067;entryDx=0;entryDy=0;entryPerimeter=0;" edge="1" parent="1" source="t9FMdMXyEdO8zE43Ng7H-22" target="kq0ffmicBGfv-IricyYw-2">
          <mxGeometry relative="1" as="geometry" />
        </mxCell>
        <mxCell id="t9FMdMXyEdO8zE43Ng7H-34" style="edgeStyle=orthogonalEdgeStyle;rounded=0;orthogonalLoop=1;jettySize=auto;html=1;exitX=0.5;exitY=0;exitDx=0;exitDy=0;entryX=0.183;entryY=1;entryDx=0;entryDy=0;entryPerimeter=0;" edge="1" parent="1" source="t9FMdMXyEdO8zE43Ng7H-21" target="kq0ffmicBGfv-IricyYw-2">
          <mxGeometry relative="1" as="geometry" />
        </mxCell>
        <mxCell id="t9FMdMXyEdO8zE43Ng7H-35" style="edgeStyle=orthogonalEdgeStyle;rounded=0;orthogonalLoop=1;jettySize=auto;html=1;exitX=0.5;exitY=0;exitDx=0;exitDy=0;entryX=0.933;entryY=1.033;entryDx=0;entryDy=0;entryPerimeter=0;" edge="1" parent="1" source="t9FMdMXyEdO8zE43Ng7H-22" target="kq0ffmicBGfv-IricyYw-2">
          <mxGeometry relative="1" as="geometry" />
        </mxCell>
        <mxCell id="t9FMdMXyEdO8zE43Ng7H-37" style="edgeStyle=orthogonalEdgeStyle;rounded=0;orthogonalLoop=1;jettySize=auto;html=1;exitX=1;exitY=0.5;exitDx=0;exitDy=0;" edge="1" parent="1" source="t9FMdMXyEdO8zE43Ng7H-25">
          <mxGeometry relative="1" as="geometry">
            <mxPoint x="201" y="350" as="targetPoint" />
          </mxGeometry>
        </mxCell>
      </root>
    </mxGraphModel>
  </diagram>
</mxfile>
